<svg xmlns="http://www.w3.org/2000/svg" viewBox="0 0 900 340" font-family="Georgia, 'Times New Roman', serif">
  <defs>
    <marker id="arrow" viewBox="0 0 10 10" refX="9" refY="5" markerWidth="7" markerHeight="7" orient="auto-start-reverse">
      <path d="M 0 0 L 10 5 L 0 10 z" fill="#1f4e79"/>
    </marker>
    <marker id="arrowFaint" viewBox="0 0 10 10" refX="9" refY="5" markerWidth="6" markerHeight="6" orient="auto-start-reverse">
      <path d="M 0 0 L 10 5 L 0 10 z" fill="#888"/>
    </marker>
    <marker id="arrowRed" viewBox="0 0 10 10" refX="9" refY="5" markerWidth="7" markerHeight="7" orient="auto-start-reverse">
      <path d="M 0 0 L 10 5 L 0 10 z" fill="#c0392b"/>
    </marker>
  </defs>

  <style>
    .axis { stroke: #ccc; stroke-width: 1; }
    .span-line { stroke: #1f4e79; stroke-width: 2; stroke-opacity: 0.35; }
    .span-fill { fill: #1f4e79; fill-opacity: 0.10; }
    .vec { stroke: #1f4e79; stroke-width: 2.5; fill: none; }
    .vec-red { stroke: #c0392b; stroke-width: 2.5; fill: none; }
    .label { font-size: 16px; font-style: italic; }
    .title { font-size: 15px; fill: #333; }
    .caption { font-size: 13px; fill: #555; }
    .origin { fill: #333; }
  </style>

  <!-- Panel 1: one vector spans a line -->
  <g transform="translate(20,20)">
    <rect x="0" y="0" width="280" height="280" fill="none" stroke="#e0e0e0"/>
    <text x="140" y="20" text-anchor="middle" class="title">One vector: spans a line</text>

    <!-- axes -->
    <line x1="20" y1="160" x2="260" y2="160" class="axis"/>
    <line x1="140" y1="40" x2="140" y2="280" class="axis"/>

    <!-- span line through origin in direction of v -->
    <line x1="20" y1="220" x2="260" y2="100" class="span-line" stroke-dasharray="0"/>

    <!-- vector v -->
    <line x1="140" y1="160" x2="200" y2="130" class="vec" marker-end="url(#arrow)"/>
    <circle cx="140" cy="160" r="3" class="origin"/>

    <text x="205" y="125" class="label" fill="#1f4e79">v</text>
    <text x="255" y="113" class="caption" fill="#1f4e79" font-style="italic">span(v)</text>
  </g>

  <!-- Panel 2: two non-collinear span the plane -->
  <g transform="translate(310,20)">
    <rect x="0" y="0" width="280" height="280" fill="none" stroke="#e0e0e0"/>
    <text x="140" y="20" text-anchor="middle" class="title">Two non-collinear: span the plane</text>

    <!-- fill background -->
    <rect x="20" y="40" width="240" height="240" class="span-fill"/>

    <!-- axes -->
    <line x1="20" y1="160" x2="260" y2="160" class="axis"/>
    <line x1="140" y1="40" x2="140" y2="280" class="axis"/>

    <!-- vector u and v -->
    <line x1="140" y1="160" x2="210" y2="135" class="vec" marker-end="url(#arrow)"/>
    <line x1="140" y1="160" x2="170" y2="90" class="vec" marker-end="url(#arrow)"/>

    <!-- a reachable point and decomposition (dashed) -->
    <line x1="140" y1="160" x2="220" y2="80" stroke="#c0392b" stroke-width="1.5" stroke-dasharray="4 3" fill="none" marker-end="url(#arrowRed)"/>
    <line x1="210" y1="135" x2="220" y2="80" stroke="#888" stroke-width="1" stroke-dasharray="3 3"/>
    <line x1="170" y1="90" x2="220" y2="80" stroke="#888" stroke-width="1" stroke-dasharray="3 3"/>

    <circle cx="140" cy="160" r="3" class="origin"/>

    <text x="215" y="132" class="label" fill="#1f4e79">u</text>
    <text x="155" y="88" class="label" fill="#1f4e79">v</text>
    <text x="226" y="75" class="caption" fill="#c0392b">x = αu + βv</text>
  </g>

  <!-- Panel 3: collinear -->
  <g transform="translate(600,20)">
    <rect x="0" y="0" width="280" height="280" fill="none" stroke="#e0e0e0"/>
    <text x="140" y="20" text-anchor="middle" class="title">Two collinear: still just a line</text>

    <!-- axes -->
    <line x1="20" y1="160" x2="260" y2="160" class="axis"/>
    <line x1="140" y1="40" x2="140" y2="280" class="axis"/>

    <!-- span line -->
    <line x1="20" y1="220" x2="260" y2="100" class="span-line"/>

    <!-- two vectors on same line -->
    <line x1="140" y1="160" x2="190" y2="135" class="vec" marker-end="url(#arrow)"/>
    <line x1="140" y1="160" x2="220" y2="120" class="vec" marker-end="url(#arrow)"/>

    <circle cx="140" cy="160" r="3" class="origin"/>

    <text x="183" y="128" class="label" fill="#1f4e79">u</text>
    <text x="223" y="113" class="label" fill="#1f4e79">v</text>
    <text x="255" y="113" class="caption" fill="#1f4e79" font-style="italic">span(u,v)</text>
  </g>
</svg>
